<?xml version="1.0" standalone="no"?>
<!DOCTYPE svg PUBLIC "-//W3C//DTD SVG 20010904//EN"
 "http://www.w3.org/TR/2001/REC-SVG-20010904/DTD/svg10.dtd">
<svg version="1.0" xmlns="http://www.w3.org/2000/svg"
 width="260.000000pt" height="260.000000pt" viewBox="0 0 260.000000 260.000000"
 preserveAspectRatio="xMidYMid meet">
<metadata>
Created by potrace 1.11, written by Peter Selinger 2001-2013
</metadata>
<g transform="translate(0.000000,260.000000) scale(0.100000,-0.100000)"
fill="#000000" stroke="none">
<path d="M793 2301 c-185 -51 -322 -174 -385 -348 -31 -83 -30 -253 1 -338 64
-176 218 -310 403 -352 65 -15 230 -8 288 11 171 57 303 181 361 341 29 80 32
254 5 330 -57 159 -190 290 -349 345 -91 31 -232 36 -324 11z"/>
<path d="M1885 1830 c-85 -22 -152 -75 -191 -152 -144 -285 212 -563 452 -353
91 79 124 196 88 311 -24 80 -105 162 -183 187 -56 18 -115 20 -166 7z"/>
<path d="M1692 1132 c-76 -27 -138 -85 -175 -162 -32 -66 -31 -187 1 -253 93
-188 340 -234 489 -89 64 62 88 122 87 217 0 94 -25 155 -86 215 -81 81 -209
110 -316 72z"/>
<path d="M865 1071 c-76 -19 -151 -77 -188 -146 -30 -56 -30 -173 0 -231 85
-161 311 -203 449 -81 68 59 89 107 88 197 0 91 -22 139 -88 197 -70 61 -170
86 -261 64z"/>
</g>
</svg>
